<?xml version="1.0" encoding="utf-8"?>
<svg version="1.1" xmlns:xlink="http://www.w3.org/1999/xlink" width="20px" height="20px" xmlns="http://www.w3.org/2000/svg">
  <g transform="matrix(1 0 0 1 -328 -853 )">
    <path d="M 20 10.0234741692342  C 20 15.5399060849472  15.539906112456 20  10.0234741692342 20  C 4.50704225352113 20  0.0469483659771121 15.539906112456  0.0469483659771121 10.0234741692342  C 0.0469483659771121 4.50704222601233  4.50704225352113 0.0469483659771121  10.0234741692342 0.0469483659771121  C 15.5399060849472 0.0469483659771121  20 4.50704225352113  20 10.0234741692342  Z M 1.2206572678257 10.0234741692342  C 1.2206572678257 14.8356807328345  5.2112676056338 18.8262910706426  10.0234741692342 18.8262910706426  C 14.8356807328345 18.8262910706426  18.8262910706426 14.8356807328345  18.8262910706426 10.0234741692342  C 18.8262910706426 5.2112676056338  14.8356807603433 1.2206572678257  10.0234741692342 1.2206572678257  C 5.211267578125 1.2206572678257  1.2206572678257 5.2112676056338  1.2206572678257 10.0234741692342  Z M 8.26291078895246 5.91549295774648  L 14.1314554082306 10.0234741692342  L 8.26291078895246 14.1314554082306  L 8.26291078895246 5.91549295774648  Z M 9.43661971830986 12.0187793518926  L 12.2535211267606 10.0234741692342  L 9.43661971830986 8.02816901408451  L 9.43661971830986 12.0187793518926  Z " fill-rule="nonzero" fill="#444444" stroke="none" transform="matrix(1 0 0 1 328 853 )" />
  </g>
</svg>