<?xml version="1.0" encoding="utf-8"?>
<svg version="1.1" xmlns:xlink="http://www.w3.org/1999/xlink" width="20px" height="20px" xmlns="http://www.w3.org/2000/svg">
  <g transform="matrix(1 0 0 1 -328 -1007 )">
    <path d="M 20 10  C 20 15.5416666601563  15.5416666601563 20  10 20  C 4.45833333984375 20  0 15.5416666601563  0 10  C 0 4.45833333984375  4.45833333984375 0  10 0  C 15.5416666601563 0  20 4.45833333984375  20 10  Z M 0.83333333984375 10  C 0.83333333984375 15.0833333398437  4.9166666796875 19.1666666601563  10 19.1666666601563  C 15.0833333398437 19.1666666601563  19.1666666601563 15.0833333203125  19.1666666601563 10  C 19.1666666601563 4.9166666796875  15.0833333398437 0.83333333984375  10 0.83333333984375  C 4.91666666015625 0.83333333984375  0.83333333984375 4.91666666015625  0.83333333984375 10  Z M 7.5 6.25  C 7.5 6  7.66666666015625 5.83333333984375  7.91666666015625 5.83333333984375  C 8.16666666015625 5.83333333984375  8.3333333203125 6  8.33333333984375 6.25  L 8.33333333984375 13.75  C 8.33333333984375 14  8.1666666796875 14.1666666601563  7.91666666015625 14.1666666601563  C 7.666666640625 14.1666666601563  7.5 14  7.5 13.75  L 7.5 6.25  Z M 11.6666666601562 6.25  C 11.6666666601562 6  11.8333333203125 5.83333333984375  12.0833333398437 5.83333333984375  C 12.3333333398437 5.83333333984375  12.5 6  12.5 6.25  L 12.5 13.75  C 12.5 14  12.3333333398438 14.1666666601563  12.0833333398437 14.1666666601563  C 11.8333333398437 14.1666666601563  11.6666666796875 14  11.6666666601562 13.75  L 11.6666666601562 6.25  Z " fill-rule="nonzero" fill="#000000" stroke="none" transform="matrix(1 0 0 1 328 1007 )" />
  </g>
</svg>